<svg xmlns="http://www.w3.org/2000/svg" xmlns:xlink="http://www.w3.org/1999/xlink" width="400" zoomAndPan="magnify" viewBox="0 0 300 74.999997" height="100" preserveAspectRatio="xMidYMid meet" version="1.0"><defs><g/></defs><g fill="#ffffff" fill-opacity="1"><g transform="translate(56.925204, 53.549995)"><g><path d="M 10.945312 -14.207031 L 10.894531 -12.816406 C 10.894531 -11.519531 11.089844 -9.984375 11.328125 -9.359375 C 11.472656 -9.023438 11.710938 -8.878906 12.238281 -8.878906 C 13.921875 -8.878906 16.320312 -9.742188 18.191406 -11.089844 C 21.886719 -13.632812 24.433594 -18.144531 24.433594 -22.128906 C 24.433594 -25.152344 22.992188 -28.175781 20.734375 -29.902344 C 18.863281 -31.296875 16.175781 -32.0625 12.960938 -32.0625 C 9.023438 -32.0625 5.136719 -31.105469 3.886719 -29.855469 C 2.734375 -28.703125 1.535156 -25.152344 1.535156 -22.847656 C 1.535156 -22.03125 1.871094 -21.601562 2.496094 -21.601562 C 2.785156 -21.601562 3.070312 -21.695312 3.886719 -21.984375 L 5.617188 -22.609375 C 5.28125 -21.214844 5.089844 -20.351562 4.078125 -16.847656 C 2.734375 -12.046875 1.679688 -8.113281 0.769531 -4.273438 C 0.335938 -2.542969 0.335938 -2.542969 0.335938 -2.257812 C 0.335938 -1.054688 3.023438 0 6 0 C 7.441406 0 7.679688 -0.382812 8.398438 -3.742188 C 8.976562 -6.238281 9.503906 -8.351562 10.03125 -10.65625 L 10.703125 -13.152344 Z M 8.59375 -23.761719 C 10.222656 -24.046875 11.28125 -24.191406 12.480469 -24.191406 C 15.023438 -24.191406 16.367188 -23.230469 16.367188 -21.40625 C 16.367188 -19.34375 14.449219 -17.425781 11.761719 -16.800781 C 12.574219 -19.34375 12.960938 -20.785156 12.960938 -21.167969 C 12.960938 -21.9375 12.191406 -22.609375 10.945312 -22.992188 C 10.414062 -23.136719 9.839844 -23.328125 9.3125 -23.519531 C 9.167969 -23.519531 8.929688 -23.617188 8.59375 -23.761719 Z M 8.59375 -23.761719 "/></g></g></g><g fill="#ffffff" fill-opacity="1"><g transform="translate(86.15716, 53.549995)"><g><path d="M 9.457031 -31.96875 C 8.59375 -31.96875 8.207031 -31.871094 7.824219 -31.585938 C 7.34375 -31.246094 7.34375 -31.246094 5.566406 -25.679688 C 2.976562 -17.617188 -0.480469 -4.847656 -0.480469 -3.214844 C -0.480469 -2.496094 -0.0976562 -1.921875 0.769531 -1.441406 C 1.726562 -0.910156 3.839844 -0.382812 5.183594 -0.382812 C 6.816406 -0.382812 7.488281 -0.671875 7.824219 -1.441406 C 8.113281 -2.257812 8.351562 -3.121094 10.273438 -10.894531 C 10.847656 -13.296875 14.0625 -24.960938 14.496094 -26.207031 C 15.167969 -28.367188 15.359375 -29.136719 15.359375 -29.566406 C 15.359375 -31.054688 13.105469 -31.96875 9.457031 -31.96875 Z M 9.457031 -31.96875 "/></g></g></g><g fill="#ffffff" fill-opacity="1"><g transform="translate(105.501135, 53.549995)"><g><path d="M 11.855469 -31.585938 C 5.566406 -31.824219 5.566406 -31.824219 5.089844 -31.824219 C 3.792969 -31.824219 3.40625 -31.679688 3.070312 -31.199219 C 2.398438 -30.238281 1.585938 -27.265625 1.585938 -25.921875 C 1.585938 -24.527344 2.160156 -24.289062 5.472656 -24.238281 L 8.0625 -24.238281 C 8.113281 -24.238281 8.398438 -24.238281 8.832031 -24.191406 L 8.640625 -23.617188 C 5.328125 -12.863281 2.542969 -3.167969 2.542969 -2.304688 C 2.542969 -1.632812 3.023438 -1.246094 4.320312 -0.816406 C 5.425781 -0.480469 6.910156 -0.238281 8.113281 -0.238281 C 9.792969 -0.238281 10.175781 -0.625 10.703125 -2.929688 C 11.136719 -4.609375 12.480469 -9.648438 14.878906 -18.382812 C 15.601562 -20.929688 15.695312 -21.3125 15.695312 -21.695312 C 15.695312 -22.414062 14.734375 -23.183594 13.152344 -23.710938 L 12.289062 -24 C 12.238281 -24 11.953125 -24.097656 11.664062 -24.191406 C 12.289062 -24.238281 12.625 -24.238281 12.960938 -24.238281 C 13.871094 -24.238281 13.871094 -24.238281 16.464844 -24.097656 C 19.441406 -23.902344 19.441406 -23.902344 19.679688 -23.902344 C 20.6875 -23.902344 21.167969 -24.289062 21.601562 -25.441406 C 22.128906 -26.878906 22.703125 -29.089844 22.703125 -29.855469 C 22.703125 -30.480469 22.511719 -30.863281 22.078125 -31.007812 C 21.792969 -31.152344 21.792969 -31.152344 18 -31.34375 Z M 11.855469 -31.585938 "/></g></g></g><g fill="#ffffff" fill-opacity="1"><g transform="translate(129.645105, 53.549995)"><g><path d="M 14.351562 -24.625 C 14.976562 -24.625 15.359375 -24.238281 15.359375 -23.664062 C 15.359375 -23.328125 15.359375 -23.230469 15.070312 -22.414062 C 14.976562 -22.128906 14.929688 -21.792969 14.929688 -21.550781 C 14.929688 -20.640625 15.839844 -20.160156 17.519531 -20.160156 C 21.070312 -20.160156 22.65625 -21.792969 22.65625 -25.441406 C 22.65625 -29.902344 20.449219 -32.257812 16.222656 -32.257812 C 12.480469 -32.257812 8.640625 -30.144531 6.046875 -26.640625 C 2.832031 -22.367188 0.816406 -16.03125 0.816406 -10.078125 C 0.816406 -3.9375 3.695312 0.191406 7.96875 0.191406 C 11.230469 0.191406 14.6875 -1.585938 16.753906 -4.273438 C 18.238281 -6.289062 19.585938 -9.792969 19.585938 -11.664062 C 19.585938 -12.71875 18.335938 -13.441406 16.414062 -13.441406 C 15.503906 -13.441406 14.207031 -13.152344 13.535156 -12.769531 C 12.769531 -12.335938 12.671875 -12.238281 11.761719 -10.175781 C 11.328125 -9.070312 10.800781 -8.59375 10.128906 -8.59375 C 9.214844 -8.59375 8.785156 -9.214844 8.785156 -10.511719 C 8.785156 -14.015625 10.078125 -18.71875 12.097656 -22.511719 C 12.816406 -23.902344 13.632812 -24.625 14.351562 -24.625 Z M 14.351562 -24.625 "/></g></g></g><g fill="#ffffff" fill-opacity="1"><g transform="translate(155.949068, 53.549995)"><g><path d="M 17.617188 -19.390625 L 12.382812 -19.535156 L 12.625 -20.257812 L 13.679688 -23.808594 L 14.449219 -26.304688 C 15.214844 -28.703125 15.214844 -28.703125 15.214844 -29.230469 C 15.214844 -30.046875 14.785156 -30.671875 13.921875 -31.054688 C 12.910156 -31.535156 11.039062 -31.96875 10.128906 -31.96875 C 9.070312 -31.96875 8.304688 -31.488281 7.871094 -30.480469 C 7.535156 -29.664062 5.902344 -24.480469 5.039062 -21.359375 C 4.894531 -20.878906 4.753906 -20.398438 4.609375 -19.96875 L 4.511719 -19.535156 C 3.167969 -19.535156 2.832031 -19.441406 2.449219 -19.007812 C 1.726562 -18.238281 0.574219 -14.496094 0.574219 -13.054688 C 0.574219 -12.046875 1.007812 -11.566406 2.304688 -11.328125 L 2.113281 -10.753906 C 1.871094 -9.742188 1.632812 -8.734375 1.34375 -7.777344 C 0.335938 -3.742188 0.144531 -2.976562 0.144531 -2.398438 C 0.144531 -1.824219 0.480469 -1.488281 1.535156 -1.054688 C 2.59375 -0.625 4.222656 -0.289062 5.472656 -0.289062 C 6.289062 -0.289062 6.910156 -0.527344 7.296875 -1.054688 C 7.679688 -1.535156 7.871094 -2.015625 8.398438 -4.320312 C 8.542969 -5.039062 8.785156 -6.046875 9.121094 -7.246094 C 9.742188 -9.742188 9.839844 -10.222656 10.078125 -11.328125 L 12.382812 -11.328125 C 14.015625 -11.28125 14.304688 -11.472656 15.742188 -13.824219 C 15.9375 -14.160156 16.128906 -14.542969 16.320312 -14.929688 L 16.65625 -15.503906 C 16.320312 -14.304688 16.273438 -14.0625 15.9375 -12.960938 C 14.015625 -6.382812 13.105469 -2.929688 13.105469 -2.351562 C 13.105469 -1.007812 14.832031 -0.335938 18.097656 -0.335938 C 20.113281 -0.335938 20.398438 -0.527344 21.070312 -2.785156 C 23.230469 -9.984375 27.9375 -28.128906 27.9375 -29.28125 C 27.9375 -29.953125 27.503906 -30.527344 26.734375 -30.910156 C 25.824219 -31.34375 23.136719 -31.96875 22.03125 -31.96875 C 21.121094 -31.96875 20.929688 -31.679688 20.304688 -29.617188 L 19.585938 -26.929688 L 18.574219 -23.039062 L 17.808594 -20.0625 Z M 17.617188 -19.390625 "/></g></g></g><g fill="#ffffff" fill-opacity="1"><g transform="translate(188.253013, 53.549995)"><g><path d="M 9.40625 -7.824219 L 11.566406 -7.824219 C 12.527344 -7.824219 13.199219 -8.59375 14.160156 -10.847656 L 13.777344 -4.03125 L 13.726562 -2.734375 C 13.726562 -0.816406 14.734375 -0.144531 17.710938 -0.144531 C 20.449219 -0.144531 21.214844 -0.816406 21.265625 -3.265625 C 21.265625 -3.695312 21.3125 -4.609375 21.359375 -5.953125 C 21.550781 -10.078125 21.742188 -16.511719 21.742188 -19.152344 C 21.742188 -21.839844 21.550781 -27.550781 21.40625 -28.609375 C 21.167969 -30.480469 20.785156 -30.863281 18.816406 -31.296875 C 17.183594 -31.679688 15.503906 -31.921875 14.785156 -31.921875 C 13.777344 -31.921875 13.296875 -31.632812 12.574219 -30.527344 C 11.710938 -29.328125 8.640625 -23.664062 7.296875 -20.878906 C 6.527344 -19.34375 5.808594 -17.808594 5.039062 -16.320312 C 4.945312 -16.078125 4.847656 -15.886719 4.753906 -15.695312 C 4.320312 -15.695312 4.320312 -15.695312 3.742188 -15.742188 C 2.351562 -15.839844 1.726562 -15.359375 1.054688 -13.777344 C 0.574219 -12.527344 -0.0976562 -9.742188 -0.0976562 -8.785156 C -0.0976562 -8.0625 0.144531 -7.824219 0.910156 -7.726562 L 0.0976562 -5.808594 C -0.769531 -3.886719 -0.863281 -3.648438 -0.863281 -3.167969 C -0.863281 -2.59375 -0.574219 -2.113281 -0.046875 -1.726562 C 1.152344 -0.910156 3.3125 -0.191406 4.558594 -0.191406 C 5.617188 -0.191406 5.953125 -0.574219 6.960938 -2.640625 Z M 14.59375 -15.648438 L 12.574219 -15.648438 C 12.863281 -16.558594 12.960938 -16.753906 13.679688 -18.671875 C 13.96875 -19.390625 14.257812 -20.160156 14.449219 -20.734375 C 14.6875 -21.3125 14.878906 -21.839844 15.070312 -22.367188 L 15.40625 -23.328125 C 15.359375 -22.800781 15.359375 -22.464844 15.3125 -22.320312 L 15.121094 -20.59375 C 15.023438 -19.777344 14.976562 -19.535156 14.6875 -16.414062 Z M 14.59375 -15.648438 "/></g></g></g><g fill="#ffffff" fill-opacity="1"><g transform="translate(217.532971, 53.549995)"><g><path d="M 17.328125 -11.136719 C 19.679688 -12.382812 20.734375 -13.152344 21.9375 -14.257812 C 24.046875 -16.273438 25.390625 -19.488281 25.390625 -22.609375 C 25.390625 -28.128906 20.929688 -31.871094 14.351562 -31.871094 C 11.183594 -31.871094 5.136719 -30.769531 4.222656 -30 C 3.503906 -29.425781 2.160156 -25.441406 2.160156 -23.902344 C 2.160156 -23.136719 2.496094 -22.753906 3.167969 -22.753906 C 3.886719 -22.753906 4.703125 -22.945312 6.097656 -23.519531 C 5.953125 -22.992188 5.808594 -22.464844 5.664062 -21.886719 C 5.425781 -20.976562 4.753906 -18.671875 3.839844 -15.503906 C 1.441406 -6.960938 0.335938 -2.785156 0.335938 -2.0625 C 0.335938 -1.488281 0.671875 -1.105469 1.585938 -0.769531 C 2.929688 -0.238281 4.414062 0.046875 5.902344 0.046875 C 6.960938 0.046875 7.34375 -0.0976562 7.679688 -0.480469 C 7.777344 -0.625 8.0625 -1.585938 8.496094 -3.359375 L 9.9375 -9.265625 L 14.6875 -0.574219 C 16.703125 3.121094 16.703125 3.121094 17.425781 3.121094 C 18.144531 3.121094 19.632812 2.542969 21.070312 1.679688 C 22.464844 0.863281 23.136719 0.0976562 23.136719 -0.625 C 23.136719 -1.199219 23.136719 -1.199219 21.9375 -3.214844 Z M 8.257812 -23.953125 C 10.367188 -24.480469 11.761719 -24.71875 13.199219 -24.71875 C 15.695312 -24.71875 17.519531 -23.375 17.519531 -21.503906 C 17.519531 -19.199219 14.640625 -16.558594 12.191406 -16.703125 C 12.144531 -16.703125 12.046875 -16.703125 11.953125 -16.753906 L 12.046875 -17.136719 C 12.910156 -19.726562 13.199219 -20.785156 13.199219 -21.550781 C 13.199219 -22.65625 12.527344 -23.089844 10.222656 -23.566406 C 9.742188 -23.664062 9.265625 -23.761719 8.832031 -23.855469 Z M 8.257812 -23.953125 "/></g></g></g></svg>